<svg width="20" height="20" viewBox="0 0 20 20" fill="none" xmlns="http://www.w3.org/2000/svg">
<path d="M16.2492 14.0303C16.1681 13.8698 16.0871 13.7094 16.0871 13.549C16.0871 13.2282 15.925 12.9876 15.6818 12.747C15.6007 12.6668 15.4386 12.5866 15.3576 12.5866C15.8439 11.1429 15.1144 9.69919 14.3038 8.65653C13.6554 7.69407 12.6827 6.97223 12.7638 5.68895C12.7638 4.16506 12.9259 1.3579 10.089 1.59851C7.17098 1.75892 7.98153 4.7265 7.90047 5.76916C7.90047 6.65141 7.4952 7.53366 6.84676 8.25551C6.68464 8.41592 6.52253 8.65653 6.44148 8.81694C5.63092 9.7794 5.22565 11.0627 5.22565 12.2657C5.06354 12.4262 4.90143 12.5866 4.82037 12.747C4.73932 12.8272 4.65826 12.9074 4.65826 12.9876C4.5772 13.0678 4.41509 13.148 4.25298 13.2282C3.92876 13.3084 3.6856 13.4688 3.52348 13.7896C3.44243 14.0303 3.36137 14.3511 3.44243 14.6719C3.52348 14.8323 3.52348 14.9927 3.44243 15.2333C3.28032 15.5541 3.28032 15.9552 3.44243 16.3562C3.6856 16.677 4.09087 16.7572 4.65826 16.8374C5.06354 16.8374 5.54987 16.9978 5.95515 17.1582C6.36042 17.3989 6.84675 17.5593 7.33309 17.5593C7.57625 17.5593 7.90047 17.4791 8.14364 17.3989C8.38681 17.2384 8.54892 17.078 8.62997 16.8374C8.95419 16.8374 9.44053 16.677 10.0079 16.677C10.4942 16.677 10.9806 16.8374 11.629 16.7572C11.629 16.8374 11.629 16.9176 11.7101 16.9978C11.8722 17.3989 12.2775 17.7197 12.7638 17.7999H12.9259C13.5744 17.7197 14.2228 17.3989 14.6281 16.9176C14.9523 16.5968 15.3576 16.3562 15.7628 16.1958C16.2492 15.9552 16.5734 15.7948 16.6545 15.3937C16.7355 14.8323 16.5734 14.5115 16.2492 14.0303ZM10.6564 3.76404C11.1427 3.84424 11.548 4.24527 11.4669 4.7265C11.4669 4.96711 11.3859 5.20773 11.2237 5.44834H11.1427C10.9806 5.36814 10.8995 5.36813 10.8185 5.28793C10.8995 5.20773 10.8995 5.04732 10.9806 4.88691C10.9806 4.56609 10.8185 4.32547 10.6564 4.32547C10.4132 4.32547 10.2511 4.56609 10.2511 4.88691V4.96711C10.17 4.88691 10.0079 4.88691 9.92686 4.8067V4.7265C9.8458 4.32547 10.17 3.84424 10.6564 3.76404ZM10.4132 5.36814C10.4942 5.44834 10.6564 5.52854 10.7374 5.52854C10.8185 5.52854 10.9806 5.60875 11.0616 5.68895C11.2237 5.76916 11.3859 5.84936 11.3859 6.08998C11.3859 6.33059 11.1427 6.57121 10.6564 6.73162C10.4942 6.81182 10.4132 6.81182 10.3321 6.89203C10.089 7.05244 9.8458 7.13264 9.52158 7.13264C9.27842 7.13264 9.03525 6.97223 8.87314 6.81182C8.79208 6.73162 8.71103 6.65141 8.54892 6.57121C8.46786 6.491 8.30575 6.33059 8.2247 6.08998C8.2247 6.00977 8.30575 5.92957 8.38681 5.84936C8.62997 5.68895 8.71103 5.60875 8.79208 5.52854L8.87314 5.44834C9.03525 5.20773 9.35947 5.04732 9.68369 5.04732C9.92686 5.12752 10.17 5.20773 10.4132 5.36814ZM8.71103 3.92445C9.03525 3.92445 9.27842 4.24527 9.35947 4.8067V4.96711C9.27842 4.96711 9.1163 5.04732 9.03525 5.12752V4.96711C9.03525 4.7265 8.87314 4.48588 8.71103 4.56609C8.54892 4.56609 8.46786 4.8067 8.46786 5.04732C8.46786 5.20773 8.54892 5.28793 8.62997 5.36814C8.62997 5.36814 8.54892 5.44834 8.46786 5.44834C8.30575 5.28793 8.14364 5.04732 8.14364 4.8067C8.14364 4.32547 8.38681 3.92445 8.71103 3.92445ZM7.90047 16.8374C7.33309 17.078 6.60359 16.9978 6.11726 16.677C5.63092 16.4364 5.22565 16.3562 4.65826 16.3562C4.25298 16.276 3.84771 16.276 3.76665 16.1156C3.6856 15.9552 3.6856 15.7146 3.84771 15.3135C3.92876 15.0729 3.92876 14.8323 3.84771 14.5917C3.76665 14.3511 3.76665 14.1907 3.84771 13.95C3.92876 13.7094 4.09087 13.6292 4.33404 13.549C4.5772 13.4688 4.73932 13.3886 4.90143 13.2282C4.98248 13.148 5.06354 13.0678 5.14459 12.9074C5.38776 12.5866 5.54987 12.4262 5.79304 12.4262C6.27937 12.5064 6.68464 13.2282 7.00887 13.95C7.17098 14.1907 7.33309 14.5115 7.57625 14.7521C7.90047 15.1531 8.30575 15.7146 8.30575 16.0354C8.30575 16.4364 8.14364 16.677 7.90047 16.8374ZM11.8722 15.0729C11.8722 15.1531 11.8722 15.1531 11.7911 15.2333C10.8185 15.9552 9.52158 16.0354 8.46786 15.4739L7.98153 14.7521C8.71103 14.6719 8.54892 13.7094 7.00887 12.747C5.38776 11.7043 6.52253 9.7794 7.08992 8.89715C7.17098 8.81694 7.17098 8.89715 6.84676 9.53878C6.60359 10.02 6.11726 11.2231 6.7657 12.1053C6.7657 11.4637 6.92781 10.8221 7.17098 10.1804C7.73836 9.13776 8.14364 7.93469 8.38681 6.73162C8.46786 6.81182 8.46786 6.81182 8.54892 6.81182C8.62997 6.89203 8.71103 6.97223 8.79208 6.97223C8.95419 7.21285 9.27842 7.29305 9.52158 7.29305H9.60264C9.92686 7.29305 10.2511 7.21285 10.4942 6.97223C10.5753 6.89203 10.6564 6.81182 10.8185 6.81182C11.0616 6.73162 11.3048 6.57121 11.548 6.33059C11.8722 7.37326 12.1964 8.33571 12.6827 9.21797C13.007 9.8596 13.2501 10.5012 13.4122 11.2231C13.6554 11.2231 13.9796 11.3033 14.2228 11.4637C14.8712 11.7845 15.1144 12.0251 15.0333 12.4262H14.8712C14.8712 12.1855 14.7091 11.9449 14.1417 11.7043C13.5744 11.4637 13.088 11.4637 12.9259 12.0251C12.8449 12.0251 12.7638 12.1053 12.6827 12.1053C12.0343 12.4262 12.0343 13.3084 11.9532 14.1907C12.0343 14.5115 11.9532 14.7521 11.8722 15.0729ZM15.6007 15.5541C15.1144 15.7146 14.7091 16.0354 14.3849 16.4364C14.0607 16.9176 13.4933 17.2384 12.8449 17.1582C12.5206 17.1582 12.1964 16.9176 12.1154 16.5968C12.0343 16.1156 12.0343 15.6343 12.2775 15.1531C12.3585 14.8323 12.4396 14.5917 12.5206 14.2709C12.6017 13.3084 12.6017 12.747 13.007 12.5064C13.007 12.9074 13.2501 13.148 13.5743 13.3084C13.9796 13.3084 14.3849 13.2282 14.7091 12.9074H14.8712C15.1144 12.9074 15.2765 12.9074 15.4386 13.0678C15.6007 13.2282 15.6818 13.4688 15.6818 13.6292C15.6818 13.8698 15.8439 14.1105 15.925 14.3511C16.3302 14.7521 16.3302 14.9927 16.3302 15.0729C16.2492 15.2333 15.925 15.3937 15.6007 15.5541ZM8.30575 5.92957C8.2247 5.92957 8.2247 5.92957 8.2247 6.00977C8.2247 6.00977 8.2247 6.08998 8.30575 6.08998C8.38681 6.08998 8.38681 6.17018 8.38681 6.17018C8.62997 6.491 9.03525 6.65141 9.52158 6.73162C9.92686 6.65141 10.3321 6.57121 10.7374 6.25039L11.2237 6.00977C11.3048 6.00977 11.3048 5.92957 11.3048 5.92957C11.3048 5.84936 11.3048 5.84936 11.2237 5.84936C11.0616 5.92957 10.8185 6.00977 10.6564 6.08998C10.3321 6.33059 9.92686 6.491 9.52158 6.491C9.1163 6.491 8.79208 6.25039 8.54892 6.00977C8.46786 6.00977 8.38681 5.92957 8.30575 5.92957Z" fill="#1A1A1A"/>
</svg>
